<svg width="68" height="68" viewBox="0 0 68 68" fill="none" xmlns="http://www.w3.org/2000/svg">
<path d="M61.945 44.7807C61.0801 41.7448 58.9613 39.2015 56.1139 37.8184C52.575 28.2294 45.6834 22.4224 36.0278 19.7187C36.883 16.6612 37.3299 13.8235 37.3523 11.5706C37.3732 9.53203 36.9937 6.35657 34.7128 5.57433C32.5522 4.83141 29.4265 4.49926 25.841 4.52093C28.3129 3.87027 30.9115 3.52367 33.5936 3.52367C50.3639 3.52367 63.958 17.1177 63.958 33.888C63.958 37.7269 63.2447 41.3998 61.945 44.7807ZM58.8722 49.8487C58.6259 50.765 58.2296 51.5993 57.7153 52.3334C55.6567 55.0211 52.5774 56.3192 49.2198 55.4198C47.4636 54.9489 45.8695 53.8746 44.7751 52.2885C49.2784 52.6054 52.3231 48.1302 51.5706 43.9022C51.3299 42.5455 50.7217 41.2145 49.7157 40.076C55.3606 38.9544 60.3966 44.1581 58.8722 49.8487ZM45.5502 61.8061C46.2859 60.6869 46.7929 59.4169 47.0175 58.0722C48.221 58.5688 49.5055 58.852 50.8068 58.9042C49.1645 60.037 47.4051 61.011 45.5502 61.8061ZM38.6216 62.8555C36.8541 63.1836 35.1244 62.7656 33.7565 61.8253C29.9737 59.2251 30.0122 53.5641 33.896 51.0329C34.0124 53.3363 35.4493 55.886 37.8281 56.4339C39.7737 56.8816 41.3012 55.7576 42.0811 54.0568C42.613 54.8406 43.2308 55.5362 43.9143 56.1395C44.0844 59.3864 41.8203 62.2626 38.6216 62.8555ZM30.2601 49.933C28.9684 51.3522 28.1051 53.171 27.8267 55.0724C26.6866 54.6167 26.2999 53.0852 26.7637 51.9997C27.2844 50.7746 26.1748 49.5029 24.9128 49.8006C22.6415 50.2435 20.7537 51.5584 19.5342 53.3331C18.1848 55.2971 17.701 57.7858 18.269 60.106C8.96804 54.6585 3.23004 44.7205 3.23004 33.888C3.23004 30.69 3.71222 27.5507 4.69824 24.51C8.29813 28.7381 15.6351 32.1839 20.6695 34.513C28.9868 38.3599 31.1626 40.6553 30.2601 49.933ZM23.0651 61.8494C20.9559 60.2151 20.708 57.2964 22.1834 55.1495C22.5131 54.6697 22.9231 54.2437 23.3973 53.8939C23.7623 56.0922 25.5867 58.2174 27.9086 58.3466C28.1693 59.6712 28.6892 60.8818 29.4064 61.9336C27.5564 63.4219 24.9032 63.2735 23.0651 61.8494ZM32.8868 18.967C31.1129 18.6091 29.2508 18.342 27.3012 18.1615C28.4605 15.2572 29.798 12.7805 31.0969 11.0259C33.3657 7.96035 34.1769 7.51587 34.136 11.5458C34.1151 13.5387 33.6939 16.1228 32.8868 18.967ZM36.5902 47.0287C36.2628 46.8891 35.9146 46.8666 35.5929 46.942C34.9158 47.0728 34.2691 47.2718 33.657 47.5293C33.9057 40.4339 31.4314 36.1416 24.9136 32.9477C24.3769 32.4687 24.5141 29.7136 24.5806 28.8656C33.1042 31.8846 38.4073 36.9696 39.3516 46.098C39.4319 46.869 39.5089 47.6176 39.6212 48.3444C39.8114 51.1862 39.4247 52.6584 38.835 53.2063C38.5036 53.5144 37.9653 52.9528 37.7744 52.7121C37.1373 51.909 36.8309 50.5716 37.4414 49.1419C37.7896 48.3228 37.4085 47.3769 36.5902 47.0287ZM45.7563 41.0123C47.1178 41.7352 48.1159 42.9057 48.3919 44.4573C48.6085 45.676 48.3213 47.0183 47.5013 47.9658C46.5586 49.0529 44.8425 49.5399 43.6728 48.5258C42.779 47.7515 42.6675 46.8482 42.556 45.7699C41.4553 35.1299 35.0329 28.9467 25.0476 25.6196C25.3204 24.2629 25.6974 22.8075 26.178 21.2992C37.3507 22.1737 47.2502 26.0496 52.19 36.7401C50.0567 36.5604 47.8479 36.996 45.8414 38.1192C44.6428 38.668 44.5649 40.3793 45.7563 41.0123ZM5.27749 14.576C6.58041 10.5429 10.2252 9.5216 13.9799 8.87094C17.8117 8.20745 21.6924 7.81353 25.1254 7.74693C26.7091 7.71645 28.1917 7.75415 29.5236 7.86567C28.8769 8.57971 28.3033 9.36115 27.7738 10.165C23.735 9.98132 17.3857 10.1257 9.22235 12.3673C13.3959 11.9517 21.7734 11.6926 26.3465 12.5735C23.6452 17.5983 20.9174 25.6837 21.3458 31.2733C16.9765 29.2483 11.7849 26.7524 7.59289 22.9102C5.45638 20.6975 4.30511 17.587 5.27749 14.576ZM33.5936 0.293655C27.3469 0.293655 21.2608 2.01296 15.948 5.29995C15.1 5.42109 14.2511 5.55428 13.4063 5.70109C8.35668 6.57559 3.91438 8.31977 2.21191 13.5916C1.4016 16.102 1.6102 18.6878 2.56091 21.0184C0.872086 25.086 0 29.4842 0 33.888C0 52.4409 15.0406 67.4815 33.5936 67.4815C42.8697 67.4815 51.2689 63.7211 57.3479 57.6422C63.4269 51.5632 67.1872 43.164 67.1872 33.888C67.1872 15.335 52.1466 0.293655 33.5936 0.293655Z" fill="white"/>
<path d="M1.9801 22.5162C2.59228 23.7093 3.38256 24.8126 4.31167 25.8003C4.43121 25.3662 4.56041 24.9361 4.69842 24.5109C3.7653 23.4188 3.0528 22.2393 2.55857 21.0229C2.35397 21.5148 2.16143 22.0123 1.9801 22.5162Z" fill="white"/>
<path d="M18.6446 3.79893C17.7203 4.25858 16.821 4.75993 15.9473 5.2998C19.211 4.83454 22.5429 4.54014 25.8411 4.52089C27.5315 4.07648 29.2805 3.77406 31.0752 3.62646C27.0879 3.14676 22.6351 3.36736 18.6446 3.79893Z" fill="white"/>
</svg>
