<svg width="68" height="68" viewBox="0 0 68 68" fill="none" xmlns="http://www.w3.org/2000/svg">
<path d="M59.6639 49.5638C56.5182 38.5515 37.8216 34.2601 40.6665 48.3652C40.9626 49.8334 41.2674 51.3441 41.4391 52.5227C37.698 47.5396 33.356 45.5844 28.2591 50.7777C25.8233 50.0476 23.8248 48.8394 21.6827 47.4787C20.9382 42.6264 22.3462 36.0981 23.8978 31.4913C27.4696 35.5325 32.5289 38.4127 38.2901 38.7377C51.5448 39.4822 56.7821 26.9672 51.1123 15.7944C50.3133 14.1016 47.6264 14.9264 48.0837 16.8559C49.0529 21.3664 48.3966 24.1359 47.0006 25.6209C45.7249 26.9776 43.8051 27.2721 42.0448 26.9536C35.4925 25.7694 35.7461 18.6875 39.4871 18.4139C41.618 18.2583 42.8929 20.9733 41.9734 22.845C44.9002 22.9124 45.7923 18.5287 43.1023 16.4146C41.8964 15.4671 40.5558 15.1021 39.2601 15.1967C31.7916 15.7439 31.1032 28.2452 41.4776 30.1202C44.3209 30.6337 47.3143 29.991 49.3465 27.8289C49.5735 27.5882 49.7877 27.3282 49.9883 27.0498C49.1451 32.1147 45.262 35.9024 38.4666 35.5205C32.0868 35.161 26.6641 30.9971 23.8144 25.8207C16.2977 12.1665 27.456 3.38135 39.5642 4.64657C53.5697 6.10915 63.9578 20.463 63.9578 33.9897C63.9578 39.6836 62.3901 45.0108 59.6639 49.5638ZM33.5943 64.3541C16.824 64.3541 3.23002 50.76 3.23002 33.9897C3.23002 20.4855 12.1531 8.6123 25.066 4.84072C18.1767 9.56462 15.3526 18.4468 21.5824 28.3816C19.4676 34.1541 18.151 39.3859 18.3412 45.7232C18.4029 47.794 18.8795 49.4948 19.4122 49.8478C20.2643 50.4126 23.2552 52.2844 25.5979 53.3218C27.7929 54.2925 29.0044 54.591 30.5713 53.0265C34.545 49.0536 37.0995 51.9884 39.5465 55.3869C42.7388 59.8212 44.8505 57.1656 44.6459 53.0546C44.5648 51.4235 44.1878 49.5542 43.8203 47.7338C42.3914 39.3354 55.4415 43.1037 57.1632 53.134C51.3827 60.2408 42.7773 64.3541 33.5943 64.3541ZM33.5943 0.396004C15.0413 0.396004 0 15.4374 0 33.9897C0 52.5427 15.0413 67.5842 33.5943 67.5842C52.1465 67.5842 67.1878 52.5427 67.1878 33.9897C67.1878 15.415 52.1328 0.396004 33.5943 0.396004Z" fill="white"/>
<path d="M24.4041 34.1085L23.6957 37.9523C23.4398 39.3403 24.563 40.5959 26.2557 38.4698C24.7371 39.1108 24.3135 34.6565 24.4041 34.1085Z" fill="white"/>
<path d="M30.4961 0.538202C26.775 1.59402 23.3019 3.57728 20.7184 6.48317C22.1128 5.8293 23.5658 5.27893 25.0669 4.84007C30.7192 0.965816 39.2284 0.191626 45.5874 2.6009C40.7833 0.764461 35.6132 0.0704675 30.4961 0.538202Z" fill="white"/>
</svg>
