<svg width="70" height="72" viewBox="0 0 70 72" fill="none" xmlns="http://www.w3.org/2000/svg">
<path d="M64.3257 39.0778C59.751 43.6829 50.9675 42.1987 46.8886 37.5045C44.0108 34.1934 43.6819 29.8915 44.5098 25.7581C46.4081 30.2349 48.9032 32.8432 51.3028 33.9102C54.9998 35.5549 58.4842 33.7554 59.816 30.044C60.7314 27.4927 60.6824 23.8519 59.0016 19.5195C61.6957 21.8181 63.7424 24.5322 65.0148 27.2857C66.7173 30.969 67.465 35.9175 64.3257 39.0778ZM57.9314 56.1497C56.7304 55.7028 53.8718 54.3189 54.0483 52.7295C54.3443 50.0659 60.376 47.9992 60.2099 44.6866C61.4061 44.4162 62.4828 44.0415 63.4447 43.5762C62.5807 48.2263 60.656 52.5041 57.9314 56.1497ZM45.4116 65.9689C45.0361 64.6371 44.5732 63.331 44.0204 62.0618C45.4317 59.4543 48.9265 58.7291 51.9944 56.0061C52.9684 57.2079 54.3772 58.0952 55.7668 58.7347C52.8657 61.8387 49.3252 64.3138 45.4116 65.9689ZM42.2883 58.6737C40.5232 55.6972 38.2905 53.0938 35.7223 50.9244C36.2639 50.5441 36.6185 49.9143 36.6185 49.2019C36.6185 48.0409 35.6766 47.0991 34.5157 47.0991C33.5818 47.0991 32.7899 47.7088 32.5156 48.5512C30.0605 46.9675 27.3889 45.7336 24.5913 44.892C24.7782 44.5783 24.8858 44.2108 24.8858 43.8185C24.8858 42.6576 23.9439 41.7165 22.7829 41.7165C21.553 41.7165 20.5903 42.7643 20.6866 43.987C18.3735 43.6067 16.0044 43.4863 13.6224 43.6484C14.0299 40.4786 11.6632 36.0539 12.2368 33.9736C13.6841 32.142 14.5354 27.6146 15.255 26.9375C26.9035 33.1344 36.3642 25.2511 39.3944 13.6484C39.9239 11.621 38.1188 10.5828 36.8856 11.6378C31.8087 15.9958 27.7243 17.2755 25.1569 16.7628C23.0357 16.3392 22.3601 14.6954 22.9113 12.7121C23.2579 11.4637 24.0698 10.099 25.4145 8.74154C28.0163 8.01546 30.7593 7.62716 33.5938 7.62716C41.0191 7.62716 47.8217 10.2932 53.0976 14.7186C53.0944 15.2826 53.3447 15.5803 53.6167 16.0135C57.1861 21.6865 57.7669 26.2315 56.7881 28.9593C56.0957 30.8904 54.5858 31.8475 52.6146 30.9706C50.2254 29.9076 47.6308 26.5043 46.0021 20.0121C45.6074 18.4332 43.3882 18.3843 42.9004 19.9142C40.3893 26.412 39.5621 33.9824 44.4537 39.6113C47.4198 43.025 52.1862 45.1038 56.6991 45.1142C54.8105 47.4673 51.3373 48.5777 50.856 52.2786C48.1153 54.8933 43.7982 56.7642 42.2883 58.6737ZM33.5938 68.3541C20.9938 68.3541 9.73606 60.5824 5.23977 48.8761C20.4932 42.5862 38.0008 51.1635 42.3773 67.0641C39.5966 67.9033 36.6482 68.3541 33.5938 68.3541ZM3.50875 33.8605C5.02043 35.0992 6.99479 36.1991 9.01721 35.9159C9.33251 38.1567 11.063 42.2291 10.1773 44.0808C8.15073 44.4539 6.15551 45.0316 4.24413 45.8009C3.21414 41.9203 2.96768 37.8382 3.50875 33.8605ZM8.82706 20.4197C9.63657 22.0098 10.8617 23.5823 12.5561 25.0914C11.266 27.0217 10.7895 31.5988 9.02924 32.5664C7.55623 33.3751 5.02884 30.9987 4.25576 30.137C5.19949 26.6029 6.76477 23.3224 8.82706 20.4197ZM26.5513 3.73204C22.6762 6.30018 20.5333 9.24297 19.8072 11.8544C18.753 15.6493 20.5614 19.1376 24.5255 19.9295C27.1001 20.443 30.6438 19.753 34.7812 17.1913C31.0955 25.4902 21.6734 28.8847 14.7063 22.6862C4.16943 13.309 16.7256 4.61938 26.5513 3.73204ZM57.6755 14.5686C51.3317 8.04596 42.6942 4.39713 33.5938 4.39713C33.0298 4.39713 32.469 4.41078 31.9122 4.43806C34.1153 3.43279 35.8996 1.10774 33.0547 0.702583C23.241 -0.706238 6.22563 4.39474 7.66053 16.6361C2.57247 22.8081 0 30.0849 0 37.9907C0 56.5436 15.0408 71.5842 33.5938 71.5842C51.0341 71.5842 65.5981 58.2164 67.0655 40.858C70.7432 36.6532 70.1391 30.6914 67.9424 25.9354C65.9872 21.7042 62.4475 17.5643 57.6755 14.5686Z" fill="white"/>
<path d="M51.8412 13.7196C52.2688 14.0414 52.6876 14.3743 53.0976 14.7177C53.0984 14.4746 53.1553 14.2275 53.2733 13.9956C53.6776 13.2054 54.646 12.8917 55.437 13.2961C56.2096 13.6916 56.9558 14.116 57.6738 14.5677C56.679 13.5448 55.6208 12.5868 54.504 11.6979C53.2893 11.7797 52.2439 12.574 51.8412 13.7196Z" fill="white"/>
<path d="M63.4447 43.5761C63.3364 44.1562 63.212 44.7298 63.0724 45.2979C64.4155 44.7651 65.6783 44.0479 66.7999 43.1092C66.9138 42.3662 67.0029 41.6145 67.0671 40.8563C66.057 42.0116 64.8247 42.9094 63.4447 43.5761Z" fill="white"/>
<path d="M6.54053 18.0721C6.83465 19.3574 7.33062 20.5608 7.97663 21.6824C8.25021 21.254 8.53342 20.8336 8.82706 20.4196C8.22293 19.2322 7.81537 17.9606 7.66053 16.636C7.27455 17.1045 6.901 17.5835 6.54053 18.0721Z" fill="white"/>
<path d="M31.9122 4.4379C29.0344 5.75206 26.8987 7.24191 25.4137 8.74139C26.346 8.48145 27.2967 8.26486 28.2626 8.09317C30.0702 6.78944 33.6091 4.90082 34.8935 4.42104C33.9003 4.38334 32.9047 4.38896 31.9122 4.4379Z" fill="white"/>
</svg>
