<svg width="68" height="79" viewBox="0 0 68 79" fill="none" xmlns="http://www.w3.org/2000/svg">
<path d="M26.9055 43.9093C26.4506 44.6722 26.701 45.6614 27.4639 46.1162C28.2277 46.5719 29.217 46.3216 29.6719 45.5579C28.8238 43.5499 29.0485 42.0127 30.2134 39.9919C28.3842 41.1616 27.9365 42.1772 26.9055 43.9093Z" fill="white"/>
<path d="M38.0686 27.1627C39.8842 23.0854 42.6577 19.8931 46.2143 17.2632C52.2275 20.0143 57.1993 24.678 60.3363 30.4954C53.1862 28.2931 45.6046 29.4516 38.0686 27.1627ZM63.9578 44.8878C63.9578 52.7671 60.9564 59.9452 56.0352 65.3423C51.7092 59.7495 48.0652 57.7453 41.7848 54.9855C42.7364 54.0973 44.0762 53.4723 46.5288 52.2199C40.007 51.0309 35.275 56.5684 34.4415 58.5404C33.989 59.6107 33.7322 60.8326 33.7443 62.2222C27.7078 58.7105 23.8087 62.1499 23.5022 62.0553C22.1367 61.2947 20.4487 59.8738 19.5036 58.6351C18.9684 57.9339 18.6243 57.3089 18.7815 57.0257C20.4848 53.9698 22.4889 51.0125 24.0068 47.8627C26.1642 43.3827 25.0049 40.6091 28.3071 36.6948C28.6449 36.3297 28.8102 35.8138 28.7075 35.2883C28.5133 34.2951 28.5326 33.2409 28.734 32.1514C30.166 24.386 39.6106 16.3967 46.5745 13.1137C39.4405 17.6539 34.8988 23.5925 33.1642 32.0471C32.9869 32.9176 33.5485 33.768 34.4198 33.9453C35.2903 34.1234 36.1407 33.561 36.318 32.6905C36.4969 31.8192 36.7079 30.9856 36.9486 30.1874C45.3109 32.7747 54.8502 31.2239 62.1904 34.6569C63.3344 37.8533 63.9578 41.2975 63.9578 44.8878ZM33.5942 75.2514C16.8239 75.2514 3.22987 61.6573 3.22987 44.8878C3.22987 28.724 15.9045 15.3794 32.0362 14.5643C28.3192 19.8602 25.8465 25.7964 25.7831 30.5949C25.4036 32.0727 25.2448 33.6139 25.4205 35.1303C21.8479 39.579 23.2752 41.957 21.1049 46.4619C19.6231 49.5387 17.6374 52.4663 15.9687 55.4612C15.0517 57.1067 15.675 58.9295 16.9427 60.5911C18.1718 62.2021 20.1639 63.8805 21.9377 64.8681C23.0746 65.5019 24.1312 65.6231 24.8027 65.1112C28.547 62.2526 32.4686 65.1425 34.0532 66.3106C35.6449 67.4836 38.1344 67.474 37.4043 64.9219C36.7745 62.73 36.8708 61.0548 37.4059 59.7896C37.8207 58.8084 38.5187 58.0366 39.3531 57.4365C45.6744 60.2525 49.3192 61.8218 53.7278 67.6168C48.3693 72.3672 41.3187 75.2514 33.5942 75.2514ZM41.7881 8.68345C39.8024 10.7638 37.9876 13.08 36.5419 15.7444C35.2614 16.7938 34.0387 17.913 32.8866 19.1029C35.1892 15.2462 38.3053 11.5252 41.7881 8.68345ZM49.3304 15.2013C51.4043 13.7748 55.4214 11.9384 57.8764 10.9106C59.2973 10.2688 59.063 8.14512 57.505 7.8595C53.1461 7.0548 48.2971 8.64094 44.434 10.5793C44.6514 10.3562 44.8713 10.1356 45.0927 9.91818C47.352 7.69984 49.7981 5.75348 52.1119 3.92104C53.4397 3.00642 52.7369 0.888367 51.1051 0.984642C45.4385 1.32802 39.3411 5.654 34.5498 11.3078C15.6325 10.7734 0 25.9561 0 44.8878C0 63.4408 15.0412 78.4814 33.5942 78.4814C42.8703 78.4814 51.2687 74.7211 57.3477 68.6421C63.4275 62.5623 67.1878 54.1639 67.1878 44.8878C67.1878 32.4057 60.2977 21.0268 49.3304 15.2013Z" fill="white"/>
<path d="M32.8122 11.3033C31.9288 12.3992 31.0944 13.5368 30.3194 14.6993C30.8875 14.6383 31.4603 14.5926 32.0371 14.5637C32.8226 13.4437 33.6634 12.3535 34.5499 11.3081C34.2322 11.2985 33.9137 11.2937 33.5944 11.2937C33.3328 11.2937 33.0721 11.2977 32.8122 11.3033Z" fill="white"/>
<path d="M46.2145 17.263C46.675 17.474 47.1299 17.6963 47.5775 17.929C48.5771 17.222 49.6168 16.5697 50.6822 15.959C50.2378 15.6958 49.7869 15.4431 49.3304 15.2007C48.2594 15.8395 47.2165 16.5215 46.2145 17.263Z" fill="white"/>
</svg>
