<svg width="68" height="69" viewBox="0 0 68 69" fill="none" xmlns="http://www.w3.org/2000/svg">
<path d="M47.4702 41.7797C41.6078 39.6914 36.21 46.2629 33.4798 44.4586C32.2242 39.8518 24.0079 35.7401 24.3569 32.8398C26.1043 30.4 27.8974 21.9647 29.6681 21.7224C32.8516 21.8516 35.4077 21.0421 38.3184 19.8804C41.6487 18.5518 44.5779 17.3836 47.5047 22.5953C48.8004 24.9091 50.9072 23.6872 50.7588 22.1083C50.2044 16.2315 47.9243 10.9958 44.8266 7.16963C55.6969 11.5004 63.1647 21.7385 63.8979 33.4632C59.2711 35.0734 51.1439 41.7749 47.4702 41.7797ZM56.3163 55.5302C55.4835 55.7621 54.6603 55.9538 53.862 56.1039C54.3651 52.7222 52.8375 47.0083 50.7443 44.2821C55.4073 42.5283 59.3834 38.93 63.9204 36.9146C63.5674 44.043 60.7562 50.5255 56.3163 55.5302ZM33.5937 65.7522C16.8241 65.7522 3.23003 52.1582 3.23003 35.3879C3.23003 25.5486 7.95876 16.3992 15.9271 10.6901C11.4592 14.7954 7.90099 19.6357 6.72002 25.7202C6.59325 26.2425 6.76093 26.8459 6.97354 27.3232C5.36975 37.8886 11.2987 54.2682 22.2163 57.6507C22.5044 57.7397 22.8445 57.7502 23.2208 57.6884C29.8927 65.0599 42.78 64.9516 50.6793 59.719C51.0693 59.7022 51.4672 59.6749 51.8716 59.6364C46.7866 63.4753 40.4565 65.7522 33.5937 65.7522ZM33.4108 47.9999C37.8041 49.1937 43.928 41.9386 47.6908 45.6725C49.6941 47.6613 50.9946 52.845 50.6809 55.6241C44.7327 61.2313 32.4448 62.0505 26.3104 56.2443C29.1867 54.395 32.46 51.327 33.4108 47.9999ZM30.2834 47.2177C29.2284 50.6202 25.7143 52.711 22.8806 54.4792C14.7117 51.6616 9.85779 39.3199 9.90191 31.2055C12.718 34.0946 17.3616 37.3158 21.479 35.3349C23.2312 39.498 31.7596 42.4537 30.2834 47.2177ZM21.2375 10.4165C20.0566 14.6887 21.5384 19.0933 25.7729 20.8969C23.9276 24.0779 23.3331 30.6503 20.2307 32.3528C17.9313 33.6156 14.7775 31.3194 13.1432 29.8504C11.6605 28.5178 11.054 27.5599 9.93321 26.0829C11.3075 19.464 16.09 14.4537 21.2375 10.4165ZM25.0862 9.41766C26.2118 7.31084 27.8396 5.27382 30.0933 4.31267C34.1874 2.56688 38.5158 5.0925 41.3061 8.03451C43.3287 10.167 45.0472 12.9622 46.1873 16.1874C43.2958 14.4328 40.3458 15.6089 37.1326 16.8902C33.9924 18.1434 29.7772 19.4287 26.5864 17.7238C23.4439 16.0454 23.5995 12.2008 25.0862 9.41766ZM39.1014 2.24435C35.9717 0.502571 32.3638 -0.158508 28.8321 1.3474C28.1397 1.64264 27.4633 2.01891 26.8103 2.48022C11.2329 5.67416 0 19.4407 0 35.3879C0 53.9409 15.0414 68.9815 33.5937 68.9815C52.1467 68.9815 67.1882 53.9409 67.1882 35.3879C67.1882 18.9521 55.2797 4.91277 39.1014 2.24435Z" fill="white"/>
<path d="M12.4958 12.5161C10.3697 14.8443 8.59819 17.3651 7.32895 20.1443C8.65515 17.8634 10.2702 15.771 12.1235 13.9169C13.2997 12.7407 14.5721 11.6608 15.928 10.6892C18.773 8.07454 22.145 5.61389 25.9014 3.18854C26.1991 2.93341 26.5023 2.69672 26.8104 2.4801C25.7546 2.69592 24.7164 2.96228 23.6991 3.27518C19.6868 5.95405 15.7298 8.97391 12.4958 12.5161Z" fill="white"/>
</svg>
