<svg width="23" height="23" viewBox="0 0 23 23" fill="none" xmlns="http://www.w3.org/2000/svg">
<path d="M14.375 2.15625C10.8206 2.15625 7.90625 5.07056 7.90625 8.625C7.90625 8.99841 7.96802 9.3269 8.01855 9.6582L2.3584 15.2959L2.15625 15.5205V20.8438H7.1875V18.6875H9.34375V16.5312H11.5V14.3975C12.3479 14.813 13.3362 15.0938 14.375 15.0938C17.9294 15.0938 20.8438 12.1794 20.8438 8.625C20.8438 5.07056 17.9294 2.15625 14.375 2.15625ZM14.375 3.59375C17.1461 3.59375 19.4062 5.85388 19.4062 8.625C19.4062 11.3961 17.1461 13.6562 14.375 13.6562C13.5046 13.6562 12.609 13.4008 11.9268 13.0273L11.7471 12.9375H10.0625V15.0938H7.90625V17.25H5.75V19.4062H3.59375V16.127L9.27637 10.4219L9.5459 10.1748L9.47852 9.79297C9.40552 9.3606 9.34375 8.97595 9.34375 8.625C9.34375 5.85388 11.6039 3.59375 14.375 3.59375ZM15.8125 5.75C15.0179 5.75 14.375 6.39294 14.375 7.1875C14.375 7.98206 15.0179 8.625 15.8125 8.625C16.6071 8.625 17.25 7.98206 17.25 7.1875C17.25 6.39294 16.6071 5.75 15.8125 5.75Z" fill="white"/>
</svg>
