<svg width="68" height="72" viewBox="0 0 68 72" fill="none" xmlns="http://www.w3.org/2000/svg">
<path d="M57.9863 52.3969C59.0173 48.4608 59.7682 40.5759 58.012 34.3702C57.6727 39.8226 56.7885 48.5747 53.7479 54.9722C51.1741 60.3885 47.1586 63.9667 42.3088 66.5252C48.2353 58.2151 54.0904 38.8061 46.0314 28.0955C49.3441 38.8911 45.5075 51.3362 35.7364 57.1865C38.8301 52.5429 40.8968 48.1616 42.1299 44.0899C44.1613 37.3844 43.9511 31.4932 42.3433 26.6233C42.2173 26.2438 50.6109 19.6618 42.3593 13.3446C40.214 11.7023 37.6651 15.5854 36.2443 17.0303C33.3713 14.3346 29.6775 12.4115 25.9806 11.1487C21.9747 9.77998 26.6248 9.90114 28.1516 9.87386C44.1019 9.58745 53.252 14.7036 57.5989 30.93C58.3682 22.0791 54.0479 11.0548 41.5049 8.57976C44.2094 8.61025 46.5978 8.98651 48.7062 9.65402C58.8295 12.8568 63.9578 24.3383 63.9578 34.3124C63.9578 41.0886 61.7378 47.3456 57.9863 52.3969ZM39.2769 27.6325C40.2381 30.5425 41.3829 40.6184 38.6937 42.3321C35.1884 44.5737 32.1558 47.5951 28.5768 49.7308C27.6806 50.2652 26.2301 48.2402 25.2152 46.8233C23.4084 44.3017 21.4645 43.3526 18.7688 41.8684C18.159 41.5322 17.5982 41.2242 17.1481 40.9626C18.9469 39.3813 19.5325 36.6768 19.1474 35.0345C23.053 30.9645 23.2777 28.6394 23.5087 26.235C23.7261 23.9725 23.9532 21.6202 29.6679 16.2858C30.0057 16.4719 30.3619 16.6757 30.7373 16.8979C32.2144 17.7724 33.575 18.8571 34.764 20.095C35.8479 21.223 37.0361 20.7409 38.2789 19.5479C38.591 19.2478 41.0396 16.4406 41.1559 16.5553C43.8452 19.2029 42.0015 21.7991 40.6938 23.6396C39.662 25.0925 38.8268 26.2679 39.2769 27.6325ZM33.5935 64.6767C16.824 64.6767 3.23 51.0819 3.23 34.3124C3.23 17.5429 16.824 3.94895 33.5935 3.94895C36.8315 3.94895 39.9516 4.45599 42.8776 5.39468C39.2922 5.21095 35.2133 5.60245 30.5705 6.68714C27.813 6.57161 24.9665 6.71043 22.2596 7.24235C15.1529 8.63914 23.7117 13.6454 26.5638 14.7919C20.8403 20.3766 20.5667 23.2055 20.3044 25.9325C20.1279 27.7657 19.957 29.5396 16.8264 32.8017C11.8579 37.9733 9.99253 40.7163 17.2172 44.6941C19.4058 45.8999 21.1307 46.6645 22.5909 48.7031C24.315 51.1108 26.7805 54.551 30.2287 52.4939C32.8354 50.9383 35.2069 48.9382 37.6082 47.0809C35.795 51.345 33.0159 55.9398 29.0485 60.8169C28.4885 61.5069 28.5928 62.521 29.282 63.0818C29.8195 63.5182 30.5544 63.5519 31.1176 63.2181C31.6439 62.9398 32.2376 62.6485 32.8803 62.334C36.3959 60.6107 41.2786 58.2159 44.986 53.5393C43.5692 56.8279 41.6445 60.0451 39.6925 64.063C37.7221 64.4649 35.6827 64.6767 33.5935 64.6767ZM33.5935 0.718918C15.0413 0.718918 0 15.7603 0 34.3124C0 52.8654 15.0413 67.9059 33.5935 67.9059C35.1122 67.9059 36.6069 67.8048 38.0719 67.6099C35.5896 73.4297 39.2416 71.716 43.3381 69.618C46.8474 67.8201 51.0963 65.26 54.2565 60.8009C55.3428 59.9528 56.3754 59.0398 57.3477 58.0666C63.4275 51.9877 67.1878 43.5885 67.1878 34.3124C67.1878 25.0363 63.4275 16.6371 57.3477 10.5582C51.2688 4.47924 42.8696 0.718918 33.5935 0.718918Z" fill="white"/>
<path d="M29.6776 21.5798C28.0032 22.021 26.5623 23.6393 25.8434 25.276C25.4672 26.0808 26.4034 27.7111 27.2073 28.0874C27.3068 28.1331 26.9257 26.8839 27.3181 25.601C27.7898 24.0565 29.0791 22.3676 29.6776 21.5798Z" fill="white"/>
<path d="M26.0462 40.0301C25.5 40.0301 25.058 40.473 25.058 41.0186C25.058 41.565 25.5 42.0071 26.0462 42.0071C26.5917 42.0071 27.0336 41.565 27.0336 41.0186C27.0336 40.473 26.5917 40.0301 26.0462 40.0301Z" fill="white"/>
<path d="M28.8005 41.776C28.2551 41.776 27.8123 42.2181 27.8123 42.7645C27.8123 43.31 28.2551 43.7521 28.8005 43.7521C29.3459 43.7521 29.7887 43.31 29.7887 42.7645C29.7887 42.2181 29.3459 41.776 28.8005 41.776Z" fill="white"/>
<path d="M29.4739 38.4538C28.9275 38.4538 28.4854 38.8958 28.4854 39.4422C28.4854 39.9877 28.9275 40.4298 29.4739 40.4298C30.0196 40.4298 30.4618 39.9877 30.4618 39.4422C30.4618 38.8958 30.0196 38.4538 29.4739 38.4538Z" fill="white"/>
<path d="M51.2528 5.72985C46.8835 4.09799 42.1628 3.78828 37.548 4.20387C39.3797 4.44215 41.1608 4.8441 42.8753 5.39367C49.0048 5.67528 54.1106 7.746 58.6275 11.9147C56.4846 9.51185 53.9894 7.4243 51.2528 5.72985Z" fill="white"/>
<path d="M36.0862 67.8145C36.7538 67.7655 37.4158 67.6965 38.0721 67.6099C38.6081 66.3535 39.1513 65.1774 39.6929 64.0631C38.9996 64.2043 38.2975 64.3222 37.5883 64.4153C37.0635 65.5336 36.5604 66.6632 36.0862 67.8145Z" fill="white"/>
<path d="M54.2567 60.8008C55.3422 59.9528 56.3756 59.0398 57.3481 58.0666C57.677 57.7385 57.998 57.4023 58.3125 57.0613C59.435 54.3713 60.0873 51.5232 60.3849 48.6157C59.6773 49.9378 58.8749 51.2022 57.9859 52.3985C57.182 55.7881 55.8597 58.5392 54.2567 60.8008Z" fill="white"/>
<path d="M26.0462 40.0301C25.5 40.0301 25.058 40.473 25.058 41.0186C25.058 41.565 25.5 42.0071 26.0462 42.0071C26.5917 42.0071 27.0336 41.565 27.0336 41.0186C27.0336 40.473 26.5917 40.0301 26.0462 40.0301Z" fill="white"/>
<path d="M29.4739 38.4538C28.9275 38.4538 28.4854 38.8958 28.4854 39.4422C28.4854 39.9877 28.9275 40.4298 29.4739 40.4298C30.0196 40.4298 30.4618 39.9877 30.4618 39.4422C30.4618 38.8958 30.0196 38.4538 29.4739 38.4538Z" fill="white"/>
<path d="M28.8005 41.776C28.2551 41.776 27.8123 42.2181 27.8123 42.7645C27.8123 43.31 28.2551 43.7521 28.8005 43.7521C29.3459 43.7521 29.7887 43.31 29.7887 42.7645C29.7887 42.2181 29.3459 41.776 28.8005 41.776Z" fill="white"/>
</svg>
