<svg width="68" height="73" viewBox="0 0 68 73" fill="none" xmlns="http://www.w3.org/2000/svg">
<path d="M57.0939 40.4276C56.3398 43.9008 53.255 46.3887 49.6904 46.3887C46.1258 46.3887 43.0409 43.9008 42.2868 40.4276H57.0939ZM41.9225 37.1976C41.8014 31.2558 44.7563 24.9225 48.9105 20.7618C53.7845 24.9025 56.781 30.8041 57.2119 37.1976H41.9225ZM59.2128 55.6929H35.2089V15.1947C39.2678 15.4683 43.0474 16.764 46.2894 18.8283C41.2703 24.04 37.6824 32.4873 38.9252 39.7577C39.409 45.3304 44.0904 49.6187 49.6904 49.6187C55.6578 49.6187 60.4965 44.7801 60.4965 38.8126C60.4965 31.3842 57.4855 24.6586 52.6163 19.7903C48.1034 15.2766 41.994 12.3602 35.2089 11.9583V9.06601C51.3158 9.91002 63.9584 23.2465 63.9584 39.3871C63.9584 45.3882 62.2174 50.9826 59.2128 55.6929ZM33.5939 69.7514C24.5938 69.7514 16.1304 65.7985 10.3482 58.9229H56.8396C51.0575 65.7985 42.5941 69.7514 33.5939 69.7514ZM24.9011 40.4276C24.1469 43.9008 21.0613 46.3887 17.4975 46.3887C13.9321 46.3887 10.8481 43.9008 10.0931 40.4276H24.9011ZM9.97597 37.1976C10.4068 30.8041 13.4034 24.9025 18.2773 20.7618C22.4316 24.9225 25.3864 31.2558 25.2653 37.1976H9.97597ZM7.97505 55.6929C4.97102 50.9826 3.22964 45.3882 3.22964 39.3871C3.22964 23.2465 15.872 9.91002 31.9789 9.06601V11.9583C25.1931 12.3602 19.0836 15.2766 14.5707 19.7903C9.50904 24.8519 6.69122 31.6546 6.69122 38.8126C6.69146 44.7801 11.5292 49.6187 17.4975 49.6187C23.0975 49.6187 27.7789 45.3304 28.2627 39.7577C29.5054 32.4873 25.9176 24.04 20.8984 18.8283C24.1413 16.764 27.9201 15.4683 31.9789 15.1947V55.6929H7.97505ZM35.2089 5.83197V2.19918C35.2089 1.30703 34.4861 0.584175 33.5939 0.584175C32.7018 0.584175 31.9789 1.30703 31.9789 2.19918V5.83197C14.0869 6.67919 0 21.4638 0 39.3871C0 57.9401 15.0409 72.9815 33.5939 72.9815C52.1462 72.9815 67.1876 57.9401 67.1876 39.3871C67.1876 21.4638 53.1001 6.67919 35.2089 5.83197Z" fill="white"/>
</svg>
