<svg width="68" height="68" viewBox="0 0 68 68" fill="none" xmlns="http://www.w3.org/2000/svg">
<path d="M55.0646 55.3581C49.5697 60.8521 41.9784 64.2515 33.5936 64.2515C25.208 64.2515 17.6167 60.8521 12.1226 55.3581C6.62774 49.864 3.22923 42.2727 3.22923 33.8872C3.22923 25.5024 6.62774 17.9111 12.1226 12.4171C17.6167 6.92218 25.208 3.52367 33.5936 3.52367C41.9784 3.52367 49.5697 6.92218 55.0646 12.4171C60.5587 17.9111 63.9572 25.5024 63.9572 33.8872C63.9572 42.2727 60.5587 49.864 55.0646 55.3581ZM33.5936 0.293655C24.3167 0.293655 15.9183 4.05399 9.83932 10.1337C3.75955 16.2127 0 24.6111 0 33.8872C0 43.1632 3.75955 51.5624 9.83932 57.6414C15.9183 63.7211 24.3167 67.4815 33.5936 67.4815C42.8697 67.4815 51.2681 63.7211 57.3479 57.6414C63.4269 51.5624 67.1872 43.1632 67.1872 33.8872C67.1872 24.6111 63.4269 16.2127 57.3479 10.1337C51.2681 4.05399 42.8697 0.293655 33.5936 0.293655Z" fill="white"/>
<path fill-rule="evenodd" clip-rule="evenodd" d="M40.0974 14.7002C40.5987 14.1979 40.5987 13.3851 40.0974 12.8836C39.5952 12.3821 38.7826 12.3821 38.2813 12.8836C37.7799 13.3851 37.7799 14.1979 38.2813 14.7002C38.7826 15.2017 39.5952 15.2017 40.0974 14.7002Z" fill="white"/>
<path fill-rule="evenodd" clip-rule="evenodd" d="M30.0154 25.6118C26.519 25.8773 11.2995 26.6419 13.0749 32.3887C13.6093 34.1192 15.7682 35.5377 18.0243 37.0195C18.3596 37.2401 18.6982 37.4624 19.0312 37.6854C17.8775 37.959 16.54 38.3184 15.2363 38.876C13.1969 37.2795 12.2566 35.0162 11.3957 32.2202C11.1109 34.9424 11.995 38.2141 13.0148 40.0883C12.0087 40.7911 11.1173 41.6816 10.4731 42.8297C7.35457 33.7534 9.66116 23.7079 16.463 16.9061C19.2935 14.0757 22.6615 12.0627 26.2566 10.8745C24.6978 15.9338 27.2162 21.561 30.4422 24.2744C28.1741 20.928 27.3309 12.6853 29.5893 10.0185C36.9969 8.64576 44.9324 10.5833 50.9023 15.9113C45.0006 24.4685 37.8121 25.0181 30.0154 25.6118ZM14.1797 14.6228C5.27503 23.5274 3.3094 37.2843 9.39159 48.3174C10.6143 50.5437 12.7588 49.4911 12.6569 47.8737C12.3031 42.5072 17.7419 41.2749 20.6454 40.6178C22.4834 40.2014 25.7496 38.9057 23.1903 36.7492C22.209 35.9212 20.9847 35.1165 19.7909 34.3327C18.8394 33.6892 17.9047 33.0642 17.2172 32.5291C16.2199 31.7541 16.3018 31.2759 16.8786 30.9494C18.7576 29.8864 27.9101 29.0071 30.2544 28.8281C38.9313 28.1679 46.9269 27.5573 53.6862 17.5496C54.7397 15.9883 54.9747 15.2871 53.5467 13.9521C42.4902 3.62424 24.9553 3.84727 14.1797 14.6228Z" fill="white"/>
<path fill-rule="evenodd" clip-rule="evenodd" d="M27.0348 53.1203C26.5334 53.6217 26.5334 54.4345 27.0348 54.9368C27.5362 55.4383 28.3497 55.4383 28.8511 54.9368C29.3525 54.4345 29.3525 53.6217 28.8511 53.1203C28.3497 52.6188 27.5362 52.6188 27.0348 53.1203Z" fill="white"/>
<path fill-rule="evenodd" clip-rule="evenodd" d="M50.6698 50.9154C47.8393 53.7451 44.4712 55.7581 40.8761 56.9471C42.435 51.8878 39.9166 46.2605 36.6897 43.5471C38.9578 46.8935 39.8019 55.1363 37.5434 57.8031C30.1358 59.1758 22.2002 57.2375 16.2295 51.9095C22.132 43.3522 29.3206 42.8034 37.1174 42.2097C40.613 41.9434 55.8334 41.1796 54.0579 35.4327C53.5236 33.7022 51.3646 32.2837 49.1077 30.8019C48.7724 30.5813 48.4346 30.359 48.1016 30.136C49.2553 29.8624 50.592 29.503 51.8957 28.9446C53.9352 30.5411 54.8763 32.8052 55.7371 35.6012C56.0211 32.879 55.1378 29.6073 54.1173 27.7323C55.1242 27.0303 56.0155 26.139 56.6598 24.9909C59.7783 34.0672 57.4717 44.1128 50.6698 50.9154ZM54.4751 19.9469C54.8297 25.3142 49.3909 26.5457 46.4874 27.2036C44.6486 27.62 41.3832 28.9149 43.9417 31.0723C44.9229 31.9002 46.1472 32.7041 47.3419 33.4888C48.2934 34.1314 49.2281 34.7572 49.9148 35.2915C50.9121 36.0674 50.8311 36.5455 50.2542 36.8713C48.3752 37.9351 39.2226 38.8144 36.8775 38.9925C28.2006 39.6536 20.2057 40.2634 13.4464 50.272C12.3921 51.8324 12.1579 52.5344 13.586 53.8687C24.6416 64.1974 42.1775 63.9744 52.9531 53.1987C61.8579 44.2933 63.8235 30.5371 57.7405 19.5032C56.5186 17.2776 54.374 18.3294 54.4751 19.9469Z" fill="white"/>
</svg>
