<svg width="68" height="69" viewBox="0 0 68 69" fill="none" xmlns="http://www.w3.org/2000/svg">
<path d="M33.5947 65.7514C33.1253 65.7514 32.6584 65.7402 32.1946 65.7193C32.1698 64.5809 30.9784 63.8083 29.9201 64.2848C29.0063 64.6964 27.7491 65.0253 26.8192 64.5087C26.2199 64.1765 25.8605 63.5467 25.7594 62.8824C25.3775 60.3784 27.9545 58.0662 31.0538 55.2855C35.3444 51.4368 40.4928 46.818 41.6601 38.9515C42.2089 35.2529 41.7396 31.2109 40.6918 27.6375L53.1555 22.5702L54.7328 26.4405C55.1372 27.6327 56.7241 27.9328 57.5248 26.9211L61.067 22.4394C70.4442 42.3027 56.0382 65.7514 33.5947 65.7514ZM14.4526 42.2249C15.0343 41.9786 15.5044 41.8374 15.7989 41.2052L18.1504 36.8014L37.6888 28.8586C38.548 31.8656 38.9291 35.3789 38.4678 38.4846C37.4706 45.2078 32.8012 49.3974 28.9092 52.8882C27.7315 53.9456 26.6155 54.9469 25.6535 55.9506L14.4526 42.2249ZM22.632 63.712C12.0064 59.597 4.51933 49.8202 3.38247 38.4437L7.19101 39.6102L5.44519 42.8804C4.65172 44.1945 6.00679 45.8127 7.45414 45.1966L11.367 43.5358L23.6044 58.5332C22.6441 60.1217 22.2349 61.8779 22.632 63.712ZM11.2153 14.865L8.54367 33.4076L3.23167 35.569C3.18272 27.883 6.01963 20.5276 11.2153 14.865ZM14.5785 36.4965L14.5826 36.5077C14.5938 36.535 14.6058 36.5607 14.6179 36.5871L13.1906 39.2612L10.389 40.4502L10.8976 39.4979C11.3774 38.5985 10.8655 37.3646 9.88993 37.0685L8.85816 36.7548L11.6799 35.6156L14.5785 36.4965ZM14.6837 13.3992C16.1318 13.8316 17.7629 14.1317 19.4966 14.4502C24.1259 15.3006 29.6177 16.3099 33.504 20.6824C34.7435 22.0776 35.7977 23.8483 36.6257 25.8083L16.8876 33.832C15.299 33.329 13.4626 32.6808 11.955 32.339L14.6837 13.3992ZM33.5947 5.02319C41.8591 5.02319 49.3526 8.32543 54.8275 13.6816L51.9849 13.5925C50.82 13.5219 49.9479 14.7029 50.398 15.8076L51.9376 19.5833L39.6111 24.5944C38.6451 22.2998 37.3959 20.2066 35.9133 18.5379C31.2993 13.3462 25.2098 12.227 20.0775 11.2835C18.9006 11.0677 17.7829 10.8623 16.7737 10.6184C16.602 10.5767 16.4198 10.5293 16.2297 10.4756C21.1502 7.03935 27.137 5.02319 33.5947 5.02319ZM61.1769 17.1001L56.7065 22.7547L54.314 16.8859L61.1769 17.1001ZM65.6874 16.5883C66.4937 15.5702 65.8053 14.0225 64.4735 13.9824L59.3532 13.8228C52.9549 6.1865 43.5761 1.79314 33.5947 1.79314C25.814 1.79314 18.6518 4.43911 12.9563 8.87822C12.564 8.53083 12.2575 8.12968 12.0987 7.66996C11.3597 5.53826 13.274 4.2963 15.1426 4.03235C17.2414 3.74191 16.8001 0.550377 14.7005 0.840805C10.7235 1.40321 7.64189 4.63327 9.05795 8.71696C9.38369 9.65565 9.85302 10.4186 10.4411 11.0468C3.75474 17.4122 0 26.1509 0 35.3869C0 53.94 15.0415 68.9815 33.5947 68.9815C59.1366 68.9815 74.9933 41.6857 63.2773 19.6426L65.6874 16.5883Z" fill="white"/>
<path d="M9.59216 11.884C9.82321 12.1287 10.0735 12.3598 10.3407 12.5772L9.76706 16.5645C10.2292 15.9804 10.7121 15.4132 11.2151 14.8653L11.6219 12.0421C11.1886 11.7525 10.7931 11.4243 10.441 11.0473C10.1529 11.3208 9.87054 11.6 9.59216 11.884Z" fill="white"/>
<path d="M12.957 8.87922C13.8371 9.65926 15.1528 10.1713 16.2286 10.4762C16.6722 10.1673 17.1231 9.86871 17.5828 9.58302C16.3786 9.31578 14.9089 8.88724 13.9325 8.14651C13.6028 8.38486 13.2771 8.62883 12.957 8.87922Z" fill="white"/>
<path d="M53.7455 12.6733C54.1138 13.0006 54.4749 13.3368 54.8271 13.6818L59.354 13.823C59.0691 13.4828 58.7779 13.1491 58.4802 12.8209L53.7455 12.6733Z" fill="white"/>
<path d="M61.0665 22.4387C61.2221 22.7692 61.3729 23.1029 61.5165 23.4398L63.7643 20.5969C63.6062 20.276 63.4442 19.9584 63.2765 19.6431L61.0665 22.4387Z" fill="white"/>
</svg>
