<svg width="68" height="71" viewBox="0 0 68 71" fill="none" xmlns="http://www.w3.org/2000/svg">
<path d="M63.9582 36.88C63.9582 44.8419 60.8934 52.0874 55.8807 57.5029C51.4801 51.7842 48.0006 49.9469 41.6167 47.1397C42.4078 46.4353 44.5154 44.0565 46.8669 41.8903C39.473 44.0108 34.5036 51.1881 29.0648 56.2754L21.8249 54.6941L23.9983 47.1782C24.1371 46.8036 24.1379 46.3767 23.9678 45.9804L23.334 42.1294C23.0099 40.1574 23.7087 39.4682 24.5006 37.6125C25.631 37.8187 26.6202 37.8845 27.3816 37.8083C28.2657 37.7216 28.9124 36.9338 28.8257 36.0488C28.7391 35.1639 27.9504 34.5173 27.0655 34.6047C25.29 34.782 21.6901 33.8337 18.1416 31.8376C10.2269 27.3857 7.15077 20.5846 11.647 12.52C11.6542 20.6248 17.3529 25.9375 24.6602 28.3941C25.6679 28.7327 27.4498 29.5005 28.3877 28.8434C40.8232 21.5514 46.7265 13.9401 58.3791 19.3355C61.8923 24.2896 63.9582 30.3437 63.9582 36.88ZM33.5938 67.2444C16.8242 67.2444 3.22996 53.6503 3.22996 36.88C3.22996 31.8183 4.4687 27.0455 6.65952 22.8487C7.58818 27.275 10.73 31.3691 16.5651 34.6512C18.1632 35.5506 19.8055 36.263 21.3515 36.7837C20.3326 39.1705 19.5833 39.7025 20.0149 42.2441L20.7779 46.7305L18.1881 55.6849C17.7284 57.2727 19.1853 57.7059 20.335 57.8054L29.4932 59.5536C30.0244 59.5993 30.5178 59.3819 30.8451 59.0096L39.6679 49.8033C45.8817 52.5648 49.2457 54.0707 53.5581 59.759C48.2212 64.4203 41.2372 67.2444 33.5938 67.2444ZM16.4311 11.8284C15.8486 13.5509 15.6352 15.2871 15.7066 16.9976C15.2324 15.7933 14.9428 14.4503 14.8907 12.9588C15.3913 12.5665 15.9048 12.1894 16.4311 11.8284ZM24.949 6.06634C21.7286 12.8826 23.9919 19.6419 28.8137 24.8641C27.1762 25.8244 27.5108 25.956 25.6823 25.3414C15.1145 21.7889 17.5735 11.3326 24.949 6.06634ZM28.0988 7.01305C37.7729 5.24399 47.7053 8.23975 54.7751 15.1242C44.1881 12.4028 40.0346 18.2845 31.6667 23.1905C26.7277 18.1794 25.3012 12.5272 28.0988 7.01305ZM30.5482 3.42278C30.7552 3.1837 30.9703 2.94383 31.1941 2.70555C33.1597 0.637238 31.292 -0.956924 27.8638 0.669327C24.377 2.32365 21.7728 4.19862 19.8866 6.20194C18.302 6.91117 16.7825 7.73913 15.3392 8.6762C15.5012 7.98062 15.6906 7.29627 15.9152 6.61914C16.5827 4.96642 14.4245 3.5985 13.2211 4.93592C9.78727 8.75965 7.51437 12.7976 6.69844 16.7497C2.49257 22.3601 0 29.3288 0 36.88C0 55.433 15.0415 70.4744 33.5938 70.4744C52.1468 70.4744 67.1875 55.433 67.1875 36.88C67.1875 17.0866 50.1956 1.65614 30.5482 3.42278Z" fill="white"/>
<path d="M24.7019 41.2709C23.9004 42.4334 24.4106 44.038 26.8256 42.7913C25.1777 42.7544 26.6154 38.5183 26.9219 38.0546L24.7019 41.2709Z" fill="white"/>
<path d="M4.95469 19.313C4.88 21.1943 5.12758 23.0396 5.71974 24.8199C6.00993 24.15 6.32337 23.4929 6.65945 22.8495C6.24355 20.8678 6.27083 18.8203 6.69868 16.7488C6.07925 17.5752 5.49719 18.4304 4.95469 19.313Z" fill="white"/>
<path d="M28.0972 7.01382C28.6852 6.90632 29.2797 6.81484 29.879 6.74183C30.7294 5.33703 31.6136 4.52031 32.5659 3.30245C31.8879 3.32251 31.2148 3.36343 30.5473 3.42361C29.5236 4.60858 28.7093 5.80719 28.0972 7.01382Z" fill="white"/>
<path d="M14.8906 12.9588C15.3913 12.5665 15.9055 12.1894 16.431 11.8292C17.1507 9.70232 18.3509 7.83377 19.8864 6.20271C18.3019 6.91114 16.7824 7.7391 15.3391 8.67537C14.9821 10.223 14.8449 11.6479 14.8906 12.9588Z" fill="white"/>
</svg>
