<svg width="26" height="26" viewBox="0 0 26 26" fill="none" xmlns="http://www.w3.org/2000/svg">
<path d="M13 2.4375C7.17602 2.4375 2.4375 7.17602 2.4375 13C2.4375 18.824 7.17602 23.5625 13 23.5625C18.824 23.5625 23.5625 18.824 23.5625 13C23.5625 7.17602 18.824 2.4375 13 2.4375ZM13 4.0625C17.9448 4.0625 21.9375 8.05518 21.9375 13C21.9375 17.9448 17.9448 21.9375 13 21.9375C8.05518 21.9375 4.0625 17.9448 4.0625 13C4.0625 8.05518 8.05518 4.0625 13 4.0625ZM13 6.5C10.7656 6.5 8.9375 8.32812 8.9375 10.5625C8.9375 11.7939 9.51196 12.8889 10.3848 13.6348C8.55664 14.5837 7.3125 16.4944 7.3125 18.6875H8.9375C8.9375 16.4341 10.7466 14.625 13 14.625C15.2534 14.625 17.0625 16.4341 17.0625 18.6875H18.6875C18.6875 16.4944 17.4434 14.5837 15.6152 13.6348C16.488 12.8889 17.0625 11.7939 17.0625 10.5625C17.0625 8.32812 15.2344 6.5 13 6.5ZM13 8.125C14.3552 8.125 15.4375 9.20728 15.4375 10.5625C15.4375 11.9177 14.3552 13 13 13C11.6448 13 10.5625 11.9177 10.5625 10.5625C10.5625 9.20728 11.6448 8.125 13 8.125Z" fill="white"/>
</svg>
