<svg width="68" height="68" viewBox="0 0 68 68" fill="none" xmlns="http://www.w3.org/2000/svg">
<path d="M38.818 28.1847C39.3724 29.7372 34.9021 29.9081 34.359 29.7877L38.157 30.712C39.528 31.0449 40.8453 29.9947 38.818 28.1847Z" fill="white"/>
<path d="M35.7918 64.3528C34.2843 62.7739 33.9602 60.6695 34.5434 57.437C35.0369 55.9889 35.8215 55.0085 37.1798 54.4365C38.7531 53.7746 40.6681 53.769 42.3345 53.5804C46.7399 53.0806 49.1339 50.831 47.1715 45.8327C46.5048 44.2313 49.3329 43.5791 46.8394 42.0531C47.7973 41.9127 48.6806 40.0859 47.6457 39.298C47.1675 38.9338 46.5329 38.6185 46.8763 38.292C52.5115 34.5581 48.9542 33.8617 45.887 31.312C45.7298 31.1813 44.3177 29.8575 44.4734 29.8342C46.9549 29.47 47.5149 28.0852 48.2538 26.9789C43.5283 28.6252 44.621 24.8111 45.0591 21.6934C45.1979 20.7058 45.6752 19.7462 46.2208 18.7658C49.1114 13.5734 48.5883 9.45282 46.2489 6.46108C57.014 11.4056 63.9522 22.1619 63.9522 34.0679C63.9522 49.9813 51.6491 63.2159 35.7918 64.3528ZM32.3508 54.9451C30.832 57.8446 30.5577 61.8352 32.4214 64.4097C31.2155 64.364 30.0273 64.2477 28.8608 64.0655C31.6961 60.1608 30.4847 54.4509 28.3506 50.1707C20.2851 33.9909 22.7891 28.5329 27.9093 25.98C32.1823 23.8499 37.3121 23.537 41.6437 21.4471C41.2097 23.6004 41.1262 25.7281 41.8788 27.1522C42.2462 27.8469 43.8051 28.3315 44.5665 28.0162C44.0554 28.4984 42.1419 28.577 41.878 29.709C41.1447 32.858 44.6764 33.6154 46.0996 34.7137C46.5505 35.0627 46.7206 35.4358 46.033 35.7527C44.2993 36.551 43.7281 38.7629 45.4233 39.9816C46.2753 40.5921 45.0888 41.5428 44.4967 41.5597C45.3222 42.4061 45.6094 43.064 44.7999 43.8823C44.0482 44.6421 43.7481 45.5158 44.2078 46.5427C45.5661 49.5746 44.7149 50.1017 42.0224 50.4065C38.226 50.8366 34.5138 50.8165 32.3508 54.9451ZM24.9376 63.4341C22.8749 64.8494 20.0926 64.7724 17.7964 64.0254C19.3689 62.741 19.9666 60.4978 20.184 58.5667C21.3899 47.8745 15.6744 42.9115 14.9106 32.0638C13.5643 12.9436 46.7888 19.2721 36.5556 7.23369C41.0332 17.1131 9.93558 10.6731 11.5779 32.0806C12.2309 40.5985 15.0863 44.1318 16.5753 51.4166C16.7518 52.673 16.5866 53.635 16.1822 54.3177C15.8196 54.9299 15.2187 55.3134 14.4942 55.4698C10.8454 56.2593 7.40515 52.4749 6.27713 49.4085C18.3941 49.8963 5.40985 25.8837 8.20584 18.2202C8.83804 16.4865 10.2774 15.1114 13.233 14.5819C16.6058 13.9769 32.216 10.5022 28.856 4.07107C36.0967 2.93743 44.7253 4.27566 44.0161 12.67C43.3213 20.916 32.8338 19.9195 26.4708 23.091C19.7604 26.4365 16.2055 33.0402 25.4615 51.6084C27.1744 55.0438 28.8408 60.7585 24.9376 63.4341ZM16.792 59.3665C16.3828 59.0946 15.9808 58.8122 15.5853 58.5209C16.0916 58.3773 16.5697 58.1751 17.0102 57.9144C16.9653 58.4014 16.8971 58.8884 16.792 59.3665ZM5.61685 45.9009C2.81124 39.2764 2.46866 31.6988 4.65169 24.8448C5.12183 29.5326 11.9742 47.5793 5.61685 45.9009ZM25.346 4.83644C28.8223 7.6958 15.0085 10.9451 13.5651 11.2419C16.9195 8.29674 20.9286 6.07999 25.346 4.83644ZM33.5887 0.474388C24.3126 0.474388 15.9134 4.23472 9.83449 10.3137C0.293648 19.8545 -2.60743 34.2805 2.46465 46.7321C2.42213 46.9198 2.4117 47.1204 2.44299 47.3298C3.08723 51.6509 6.06052 56.4061 10.153 58.1366C11.4888 59.4371 12.9321 60.6269 14.4685 61.6924C13.9262 61.5672 13.2643 61.2639 12.4636 60.7481C10.8542 59.6016 8.97765 61.8713 10.4266 63.2344C14.3394 66.9089 20.5627 69.2732 25.6821 66.7259C28.2174 67.3373 30.8649 67.6614 33.5887 67.6614C52.1409 67.6614 67.1822 52.6201 67.1822 34.0679C67.1822 15.5157 52.1409 0.474388 33.5887 0.474388Z" fill="white"/>
<path d="M1.90945 45.2736C2.08355 45.7654 2.26887 46.2516 2.46463 46.733C2.67804 45.8023 3.70738 45.2126 4.65649 45.6065C5.00629 45.7261 5.32641 45.824 5.61684 45.901C5.41868 45.4325 5.23174 44.9583 5.05604 44.4777C3.87747 44.0172 2.64756 44.4231 1.90945 45.2736Z" fill="white"/>
<path d="M26.7549 66.0964C26.4139 66.3298 26.0561 66.54 25.683 66.7253C26.255 66.8633 26.8319 66.9869 27.4144 67.0952L27.4312 67.0832C28.621 66.268 29.5252 65.3053 30.1903 64.2439C29.7442 64.1942 29.3014 64.1348 28.8609 64.0658C28.3161 64.8167 27.6213 65.5019 26.7549 66.0964Z" fill="white"/>
<path d="M10.1546 58.1368C11.4896 59.4373 12.9321 60.6271 14.4684 61.6925C16.0249 62.0511 16.511 60.6479 16.7918 59.3667C16.3827 59.0947 15.9807 58.8131 15.5852 58.5211C13.7913 59.0306 11.8643 58.8597 10.1546 58.1368Z" fill="white"/>
</svg>
